# xmcd
#
# Track frame offsets:
#	150
#	14120
#	28300
#	43397
#	56828
#	70113
#	83518
#	99551
#	117170
#	135556
#	149207
#
# Disc length: 2272 seconds
# Revision: 1
# Processed by: cddbd v1.5.2PL0 Copyright (c) Steve Scherf et al.
# Submitted via: dBpowerAMP V12.0
#
DISCID=a708de0b
DTITLE=The Flyin' A's - You Drive Me Crazy
DYEAR=2016
DGENRE=Americana
TTITLE0=Little Miss Tumbleweed
TTITLE1=It Ain't Funny
TTITLE2=This Dirt
TTITLE3=Blistered
TTITLE4=Blood and Bone
TTITLE5=I Won't Stop Loving You
TTITLE6=Mr Blue
TTITLE7=The Other Side Of Lonely
TTITLE8=Roadwork Ahead
TTITLE9=Weak and Wild
TTITLE10=Wild Texas Wind
EXTD=
EXTT0=
EXTT1=
EXTT2=
EXTT3=
EXTT4=
EXTT5=
EXTT6=
EXTT7=
EXTT8=
EXTT9=
EXTT10=
PLAYORDER=
